<?xml version="1.0" ?><!DOCTYPE svg  PUBLIC '-//W3C//DTD SVG 1.1//EN'  'http://www.w3.org/Graphics/SVG/1.1/DTD/svg11.dtd'><svg enable-background="new 0 0 24 24" height="24px" id="Layer_1" version="1.1" viewBox="0 0 24 24" width="24px" xml:space="preserve" xmlns="http://www.w3.org/2000/svg" xmlns:xlink="http://www.w3.org/1999/xlink"><g><g><g><path d="M8.794,21.137c-2.173,0-4.325-0.602-6.225-1.738l-2.511-1.506l2.928,0.05c0.057,0.004,0.132,0.007,0.248,0.007     c0.441,0,1.856-0.062,3.42-0.751c-1.188-0.591-2.107-1.629-2.534-2.897l-0.462-1.372l0.021,0.004     c-0.579-0.78-0.924-1.72-0.978-2.708l-0.068-1.27l0.491,0.214C2.662,8.116,2.358,6.519,3.36,4.692l0.577-1.046l0.729,0.945     c1.66,2.146,4.117,3.522,6.793,3.819c0.004-2.376,1.813-4.83,4.837-4.83c1.189,0,2.358,0.451,3.239,1.245     c0.98-0.271,1.878-0.817,1.889-0.823l1.852-1.14l-0.7,2.06c-0.054,0.156-0.115,0.31-0.184,0.458l1.549-0.757l-0.933,2.005     c-0.398,0.857-1.055,1.591-1.86,2.086c0.111,2.893-1.11,6.107-3.222,8.445c-1.621,1.798-4.509,3.947-9.057,3.976L8.794,21.137z      M2.844,18.689l0.111,0.066c1.781,1.067,3.8,1.632,5.836,1.632h0.073c4.275-0.028,6.985-2.043,8.507-3.729     c2.038-2.257,3.193-5.371,3.018-8.128l-0.016-0.238l0.209-0.114c0.762-0.417,1.382-1.079,1.748-1.864l0.04-0.089l-0.209,0.104     c-0.216,0.094-0.408,0.167-0.606,0.231l-1.228,0.402l0.822-0.996c0.316-0.384,0.558-0.815,0.717-1.284l0.03-0.09l-0.08,0.049     c-0.009,0.006-1.12,0.687-2.302,0.964l-0.2,0.047l-0.148-0.145c-0.757-0.748-1.803-1.178-2.869-1.178     c-2.56,0-4.088,2.078-4.088,4.088c0,0.049,0.012,0.202,0.029,0.369l0.042,0.44l-0.44-0.029C8.785,8.991,5.955,7.479,4.074,5.05     L4.042,5.008L4.017,5.054C2.817,7.238,3.809,9.042,4.29,9.717l0.655,0.917l-1.073-0.343c-0.127-0.04-0.252-0.089-0.374-0.142     l-0.053-0.023l0.003,0.058c0.068,1.243,0.677,2.394,1.67,3.156l1.466,1.126L4.81,14.002l0.021,0.061     c0.441,1.314,1.506,2.336,2.847,2.736l0.844,0.252l-0.767,0.433c-1.995,1.126-3.964,1.214-4.52,1.214     c-0.133,0-0.219-0.003-0.271-0.005L2.844,18.689z"/></g></g></g></svg>